<?xml version="1.0" encoding="UTF-8"?>
<svg width="200px" height="200px" viewBox="0 0 200 200" version="1.1" xmlns="http://www.w3.org/2000/svg">
    <title>Cloud Storage</title>
    <g stroke="none" stroke-width="1" fill="none" fill-rule="evenodd">
        <g transform="translate(20, 40)" fill="#2e7d32" fill-rule="nonzero">
            <!-- Cloud Shape -->
            <path d="M125,70 C125,70 160,70 160,105 C160,140 125,140 125,140 L35,140 C35,140 0,140 0,105 C0,70 35,70 35,70 C35,70 35,35 70,35 C105,35 105,70 105,70 L125,70 Z" opacity="0.9"/>
            <!-- Database/Storage Icon -->
            <g transform="translate(50, 70)">
                <ellipse cx="30" cy="10" rx="25" ry="10" fill="white"/>
                <rect x="5" y="10" width="50" height="30" fill="white"/>
                <ellipse cx="30" cy="40" rx="25" ry="10" fill="white"/>
            </g>
        </g>
    </g>
</svg>
