<svg width="371" height="81" viewBox="0 0 371 81" fill="none" xmlns="http://www.w3.org/2000/svg">
<path d="M139.63 12.4099V67.6999H128.42V62.0599C127.25 64.0399 125.56 65.6499 123.51 66.6699C121.31 67.7699 118.82 68.3499 116.33 68.3499C113.25 68.4199 110.18 67.5399 107.61 65.7899C104.97 64.0299 102.92 61.6199 101.6 58.7599C100.14 55.4599 99.4 51.9499 99.48 48.3599C99.41 44.7699 100.14 41.2599 101.6 38.0299C102.92 35.2499 104.97 32.8299 107.53 31.1499C110.17 29.4699 113.24 28.6599 116.32 28.7299C118.74 28.7299 121.15 29.2399 123.28 30.3399C125.33 31.3699 127.02 32.8999 128.19 34.8099V16.1399L139.62 12.3999L139.63 12.4099ZM126.15 56.7899C127.61 54.8899 128.42 52.0999 128.42 48.5099C128.42 44.9199 127.69 42.2099 126.15 40.3099C124.61 38.4099 122.19 37.3099 119.71 37.3799C117.22 37.2299 114.8 38.3299 113.19 40.2399C111.65 42.1399 110.85 44.8499 110.85 48.3699C110.85 51.8899 111.66 54.7399 113.19 56.7199C114.73 58.6999 117.22 59.7999 119.71 59.7199C122.49 59.7199 124.69 58.6899 126.15 56.7899ZM179.69 31.0799C182.33 32.7599 184.38 35.1799 185.62 37.9599C187.08 41.1799 187.82 44.6999 187.74 48.2899C187.81 51.8799 187.08 55.4699 185.62 58.6899C184.3 61.5499 182.25 63.9599 179.61 65.7199C177.05 67.3999 173.97 68.2799 170.9 68.2099C168.41 68.2799 165.92 67.6999 163.72 66.5299C161.67 65.4999 159.98 63.8899 158.89 61.9199V67.6299H147.61V16.1399L158.96 12.3999V34.9599C160.06 32.9799 161.74 31.3699 163.79 30.3499C165.99 29.1799 168.4 28.5899 170.89 28.6699C173.97 28.5999 177.04 29.4799 179.68 31.0899L179.69 31.0799ZM174.12 56.7099C175.66 54.7299 176.39 51.9499 176.39 48.2899C176.39 44.6299 175.66 42.0599 174.12 40.1599C172.58 38.2599 170.46 37.2999 167.68 37.2999C165.19 37.1499 162.77 38.2499 161.16 40.2299C159.62 42.2099 158.89 44.9199 158.89 48.4299C158.89 51.9399 159.62 54.7999 161.16 56.7099C162.7 58.6899 165.11 59.7899 167.68 59.6399C170.17 59.7899 172.59 58.6899 174.12 56.7099ZM203.42 38.1099H213.09V29.6099H203.42V17.0099L192.07 20.6699V53.1299C192.07 57.9599 193.32 61.6999 195.81 64.3399C198.3 66.9799 201.89 68.2899 206.58 68.2899C208.78 68.3599 210.97 67.9999 213.1 67.2599V58.4699C211.93 58.7599 210.61 58.9799 209.36 58.9799C207.75 59.0499 206.21 58.5399 205.04 57.5199C204.01 56.5699 203.43 55.0299 203.43 52.9099V38.1199L203.42 38.1099ZM139.63 12.3999V67.6899H128.42V62.0499C127.25 64.0299 125.56 65.6399 123.51 66.6599C121.31 67.7599 118.82 68.3399 116.33 68.3399C113.25 68.4099 110.18 67.5299 107.61 65.7799C104.97 64.0199 102.92 61.6099 101.6 58.7499C100.14 55.4499 99.4 51.9399 99.48 48.3499C99.41 44.7599 100.14 41.2499 101.6 38.0199C102.92 35.2399 104.97 32.8199 107.53 31.1399C110.17 29.4599 113.24 28.6499 116.32 28.7199C118.74 28.7199 121.15 29.2299 123.28 30.3299C125.33 31.3599 127.02 32.8899 128.19 34.7999V16.1399L139.62 12.3999H139.63ZM126.15 56.7799C127.61 54.8799 128.42 52.0899 128.42 48.4999C128.42 44.9099 127.69 42.1999 126.15 40.2999C124.61 38.3999 122.19 37.2999 119.71 37.3699C117.22 37.2199 114.8 38.3199 113.19 40.2299C111.65 42.1299 110.85 44.8399 110.85 48.3599C110.85 51.8799 111.66 54.7299 113.19 56.7099C114.73 58.6899 117.22 59.7899 119.71 59.7099C122.49 59.7099 124.69 58.6799 126.15 56.7799V56.7799ZM179.69 31.0699C182.33 32.7499 184.38 35.1699 185.62 37.9499C187.08 41.1699 187.82 44.6899 187.74 48.2799C187.81 51.8699 187.08 55.4599 185.62 58.6799C184.3 61.5399 182.25 63.9499 179.61 65.7099C177.05 67.3899 173.97 68.2699 170.9 68.1999C168.41 68.2699 165.92 67.6899 163.72 66.5199C161.67 65.4899 159.98 63.8799 158.89 61.9099V67.6199H147.61V16.1399L158.96 12.3999V34.9599C160.06 32.9799 161.74 31.3699 163.79 30.3499C165.99 29.1799 168.4 28.5899 170.89 28.6699C173.97 28.5999 177.04 29.4799 179.68 31.0899L179.69 31.0699ZM174.12 56.6999C175.66 54.7199 176.39 51.9399 176.39 48.2799C176.39 44.6199 175.66 42.0499 174.12 40.1499C172.58 38.2499 170.46 37.2899 167.68 37.2899C165.19 37.1399 162.77 38.2399 161.16 40.2199C159.62 42.1999 158.89 44.9099 158.89 48.4199C158.89 51.9299 159.62 54.7899 161.16 56.6999C162.7 58.6799 165.11 59.7799 167.68 59.6299C170.17 59.7799 172.59 58.6799 174.12 56.6999ZM203.42 38.0999H213.09V29.5999H203.42V16.9999L192.07 20.6599V53.1299C192.07 57.9599 193.32 61.6999 195.81 64.3399C198.3 66.9799 201.89 68.2899 206.58 68.2899C208.78 68.3599 210.97 67.9999 213.1 67.2599V58.4699C211.93 58.7599 210.61 58.9799 209.36 58.9799C207.75 59.0499 206.21 58.5399 205.04 57.5199C204.01 56.5699 203.43 55.0299 203.43 52.9099V38.1199L203.42 38.0999ZM316.97 30.6399C312.95 30.6399 308.93 32.8199 305.64 35.6599L305.84 29.1999V14.2999L299.74 17.9199V67.7099H305.17V63.9099C308.37 66.7999 312.3 68.5299 315.66 68.5299C323.91 68.5299 331.28 61.3499 331.28 49.0199C331.3 37.8999 326.29 30.6599 316.97 30.6599V30.6399ZM324.63 53.2699C324.49 55.1799 323.99 57.0499 323.15 58.7699C322.83 59.3699 322.46 59.9499 322.04 60.4799C321.49 61.1399 320.84 61.6999 320.11 62.1499C318.63 62.9899 316.95 63.4099 315.25 63.3599H314.92C313.33 63.3599 311.77 62.9499 310.39 62.1599C309.66 61.7099 309.01 61.1499 308.46 60.4899C308.04 59.9599 307.66 59.3799 307.35 58.7799C306.48 56.9899 305.97 55.0499 305.85 53.0699C305.73 51.8999 305.69 50.7099 305.69 49.5799C305.69 48.4499 305.74 47.2499 305.85 46.0899C305.97 44.0999 306.47 42.1499 307.34 40.3599C307.58 39.9099 307.85 39.4799 308.14 39.0599L308.44 38.6699C308.99 38.0099 309.64 37.4499 310.37 36.9999C311.86 36.1699 313.55 35.7699 315.25 35.8299H315.38C315.77 35.8299 316.16 35.8299 316.56 35.8999L317.09 35.9699C317.3 35.9999 317.5 36.0399 317.71 36.0899L318.02 36.1599L318.24 36.2099L318.61 36.3299C319.14 36.5099 319.65 36.7499 320.13 37.0399C320.86 37.4899 321.51 38.0499 322.06 38.7099C322.48 39.2199 322.85 39.7799 323.17 40.3599C324.47 42.6999 324.84 46.3599 324.84 49.5699C324.84 50.8099 324.78 52.0499 324.66 53.2799L324.63 53.2699ZM238.04 62.3899V18.9999V14.3499L231.84 18.1199V18.9699V67.6699H259.3V62.4199H238.04V62.3899ZM262.79 58.3099C262.79 50.4499 269.57 46.5399 284.95 44.8499C284.95 40.2099 283.39 35.7299 277.5 35.7299C273.33 35.7299 269.57 37.6999 266.74 39.5999L264.35 35.4199C267.67 33.2399 272.73 30.6999 278.53 30.6999C287.34 30.6999 291.06 36.5599 291.06 45.5399V67.6799H285.43V63.3599C281.99 66.2199 277.77 68.5599 273.3 68.5599C267.33 68.5599 262.8 64.8499 262.8 58.2999L262.79 58.3099ZM284.95 56.0199C284.95 55.0999 284.74 54.1999 284.34 53.3799C283.91 52.5699 283.38 51.8599 282.7 51.2599C281.98 50.6999 281.42 50.3499 280.43 50.0599C279.53 49.8699 278.34 49.9699 277.45 50.1899C271.11 51.8499 268.75 54.3899 268.75 57.8799C268.75 61.9799 271.54 63.6599 275.09 63.6599C277.75 63.6599 280.06 62.6599 282.56 60.8299C283.3 60.2699 283.91 59.5499 284.32 58.7099C284.73 57.8799 284.95 56.9599 284.94 56.0299L284.95 56.0199ZM334.13 63.5399L337.14 59.5199C340.27 62.0399 343.48 63.7899 347.79 63.7899C352.52 63.7899 354.88 61.2599 354.88 58.1899C354.88 54.4799 350.62 52.8299 346.62 51.3499C341.57 49.5399 335.86 47.0099 335.86 40.9299C335.86 34.8499 340.49 30.6799 348.31 30.6799C352.4 30.7399 356.35 32.1699 359.53 34.7399L356.61 38.6499C354.12 36.8399 351.58 35.4499 348.38 35.4499C343.85 35.4499 341.74 37.8699 341.74 40.6199C341.74 44.0499 345.66 45.3599 349.75 46.8799C354.95 48.8399 360.75 50.9499 360.75 57.8199C360.75 63.6799 356.11 68.5499 347.59 68.5499C342.66 68.4599 337.92 66.6899 334.13 63.5399V63.5399Z" fill="#262A38"/>
<path d="M78.4799 3.37C80.3799 5.2 81.63 7.62 81.92 10.25C81.92 11.35 81.6299 12.08 80.9699 13.47C80.3099 14.86 72.1799 28.92 69.7599 32.8C68.3699 35.07 67.64 37.78 67.64 40.42C67.64 43.06 68.3699 45.77 69.7599 48.04C72.1799 51.92 80.3099 66.06 80.9699 67.45C81.6299 68.84 81.92 69.5 81.92 70.6C81.63 73.24 80.4599 75.65 78.5499 77.41C76.7199 79.31 74.2999 80.56 71.7399 80.78C70.6399 80.78 69.9099 80.49 68.5899 79.83C67.2699 79.17 52.9199 71.26 49.0399 68.84C48.7499 68.69 48.4499 68.47 48.0899 68.33L28.8999 56.98C29.3399 60.64 30.9499 64.16 33.5899 66.72C34.0999 67.23 34.62 67.67 35.2 68.11C34.76 68.33 34.2499 68.55 33.8099 68.84C29.9299 71.26 15.7899 79.39 14.3999 80.05C13.0099 80.71 12.3499 81 11.1799 81C8.53993 80.71 6.12993 79.54 4.36993 77.63C2.46993 75.8 1.21993 73.38 0.929932 70.75C0.999932 69.65 1.29994 68.55 1.87994 67.6C2.53994 66.21 10.6699 52.07 13.0899 48.19C14.4799 45.92 15.2099 43.28 15.2099 40.57C15.2099 37.86 14.4799 35.22 13.0899 32.95C10.6699 28.92 2.46994 14.79 1.87994 13.4C1.28994 12.45 0.999932 11.35 0.929932 10.25C1.21993 7.61 2.38993 5.2 4.29993 3.37C6.11993 1.46 8.53993 0.29 11.1799 0C12.2799 0.07 13.3799 0.37 14.3999 0.95C15.5699 1.46 25.9 7.47 31.39 10.69L32.64 11.42C33.08 11.71 33.4499 11.93 33.7399 12.08L34.3299 12.45L53.8799 24.02C53.4399 19.63 51.1699 15.6 47.6499 12.89C48.0899 12.67 48.5999 12.45 49.0399 12.16C52.9199 9.74 67.06 1.54 68.45 0.95C69.4 0.37 70.5 0.07 71.67 0C74.23 0.29 76.6499 1.46 78.4799 3.37ZM42.45 45.7L46.6199 41.53C47.2099 40.94 47.2099 40.07 46.6199 39.48L42.45 35.31C41.86 34.72 40.9899 34.72 40.3999 35.31L36.2299 39.48C35.6399 40.07 35.6399 40.94 36.2299 41.53L40.3999 45.7C40.9099 46.21 41.86 46.21 42.45 45.7Z" fill="#FF694A"/>
<path d="M370.13 64.3599L368.92 67.7399H368.48L367.27 64.3599V67.7399H366.5V63.1299H367.46L368.7 66.5599L369.94 63.1299H370.9V67.7399H370.13V64.3599Z" fill="#262A38"/>
<path d="M365.82 63.8199H364.55V67.7399H363.77V63.8199H362.5V63.1299H365.82V63.8199Z" fill="#262A38"/>
</svg>
